<svg width="52" height="93" viewBox="0 0 52 93" fill="none" xmlns="http://www.w3.org/2000/svg">
<path d="M51.3699 36.0533V33.514C51.3699 32.8791 50.9467 32.4559 50.3119 32.4559H1.218C0.583166 32.4559 0.159943 32.8791 0.159943 33.514V36.0533C0.159943 36.6881 0.583166 37.1114 1.218 37.1114H23.2256H32.1133H50.1003C50.9467 37.1114 51.3699 36.6881 51.3699 36.0533Z" fill="#B68B82"/>
<path d="M43.5403 90.4375L46.7145 54.2519C43.9636 54.0403 42.2707 53.4055 40.5778 52.7706C38.6733 52.1358 36.9804 51.5009 33.383 51.5009C31.0552 51.5009 29.574 51.7126 28.0927 52.1358C27.4578 52.3474 26.823 52.559 26.1882 52.7706C24.2837 53.4055 21.9559 54.2519 17.7237 54.2519C13.4915 54.2519 11.1638 53.4055 9.25925 52.7706C7.77797 52.1358 6.5083 51.7126 4.39218 51.5009L7.77797 90.2259C7.98958 91.7071 9.04764 92.9768 10.7405 92.9768H40.5778C42.2707 93.1884 43.3287 91.9188 43.5403 90.4375ZM16.8773 75.4131C13.7031 75.4131 11.1638 72.8737 11.1638 69.6995C11.1638 66.5254 13.7031 63.986 16.8773 63.986C20.0514 63.986 22.5908 66.5254 22.5908 69.6995C22.5908 72.8737 20.0514 75.4131 16.8773 75.4131ZM31.4785 88.3214C28.3043 88.3214 25.765 85.782 25.765 82.6078C25.765 79.4337 28.3043 76.8943 31.4785 76.8943C34.6526 76.8943 37.192 79.4337 37.192 82.6078C37.192 85.782 34.6526 88.3214 31.4785 88.3214ZM35.4991 69.6995C32.3249 69.6995 29.7856 67.1602 29.7856 63.986C29.7856 60.8119 32.3249 58.2725 35.4991 58.2725C38.6733 58.2725 41.2126 60.8119 41.2126 63.986C41.2126 67.1602 38.6733 69.6995 35.4991 69.6995Z" fill="url(#paint0_linear_1125_133)"/>
<path d="M29.9972 28.2237H34.441L39.9429 14.6806C38.8848 13.8341 37.8268 12.9877 36.5571 12.3528L29.9972 28.2237Z" fill="#A5FFA8"/>
<path d="M44.5984 0.714189L42.6939 0.0793543C42.059 -0.132257 41.6358 0.0793546 41.4242 0.714189L38.25 8.54382C39.5197 9.17865 40.5778 9.81349 41.6358 10.6599L45.0216 2.19547C45.4448 1.56064 45.0216 1.13741 44.5984 0.714189Z" fill="#A5FFA8"/>
<path d="M29.1507 41.3436H24.7069L21.3211 49.8081C22.8024 49.5965 24.0721 49.1733 25.1301 48.75C25.5533 48.5384 25.765 48.5384 26.1882 48.3268L29.1507 41.3436Z" fill="#A5FFA8"/>
<path d="M39.0965 28.2237H47.3494C46.9261 24.4147 45.4448 20.8173 43.3287 18.0663L39.0965 28.2237Z" fill="#E4CFCA"/>
<path d="M24.4953 10.0251C13.9147 10.0251 5.45024 18.0663 4.39218 28.2237H25.5533L32.7481 10.8715C31.0552 10.4483 29.1507 10.0251 27.2462 10.0251H24.4953Z" fill="#E4CFCA"/>
<path d="M16.6656 50.0197L20.263 41.3436H3.75732L4.18055 47.2687C7.35472 47.4803 9.25923 48.1152 10.9521 48.75C12.4334 49.3849 13.9147 50.0197 16.6656 50.0197Z" fill="#E4CFCA"/>
<path d="M47.7725 41.3436H33.5945L31.0552 47.4804C31.69 47.4804 32.5365 47.2687 33.3829 47.2687C37.6152 47.2687 39.9429 48.1152 41.8474 48.75C43.3287 49.3849 44.5983 49.8081 46.9261 50.0197L47.7725 41.3436Z" fill="#E4CFCA"/>
<defs>
<linearGradient id="paint0_linear_1125_133" x1="25.5533" y1="51.5009" x2="25.5533" y2="93" gradientUnits="userSpaceOnUse">
<stop stop-color="#674C38"/>
<stop offset="1" stop-color="#281609"/>
</linearGradient>
</defs>
</svg>
