<svg width="52" height="93" viewBox="0 0 52 93" fill="none" xmlns="http://www.w3.org/2000/svg">
<path d="M51.95 36.0533V33.514C51.95 32.8791 51.5267 32.4559 50.8919 32.4559H1.79802C1.16318 32.4559 0.73996 32.8791 0.73996 33.514V36.0533C0.73996 36.6881 1.16318 37.1114 1.79802 37.1114H23.8056H32.6933H50.6803C51.5267 37.1114 51.95 36.6881 51.95 36.0533Z" fill="#C9EB8D"/>
<path d="M44.1203 90.4375L47.2945 54.2519C44.5436 54.0403 42.8507 53.4055 41.1578 52.7706C39.2533 52.1358 37.5604 51.5009 33.963 51.5009C31.6353 51.5009 30.154 51.7126 28.6727 52.1358C28.0379 52.3474 27.403 52.559 26.7682 52.7706C24.8637 53.4055 22.536 54.2519 18.3037 54.2519C14.0715 54.2519 11.7438 53.4055 9.83927 52.7706C8.35799 52.1358 7.08831 51.7126 4.9722 51.5009L8.35798 90.2259C8.5696 91.7071 9.62765 92.9768 11.3205 92.9768H41.1578C42.8507 93.1884 43.9087 91.9188 44.1203 90.4375ZM17.4573 75.4131C14.2831 75.4131 11.7438 72.8737 11.7438 69.6995C11.7438 66.5254 14.2831 63.986 17.4573 63.986C20.6315 63.986 23.1708 66.5254 23.1708 69.6995C23.1708 72.8737 20.6315 75.4131 17.4573 75.4131ZM32.0585 88.3214C28.8843 88.3214 26.345 85.782 26.345 82.6078C26.345 79.4337 28.8843 76.8943 32.0585 76.8943C35.2327 76.8943 37.772 79.4337 37.772 82.6078C37.772 85.782 35.2327 88.3214 32.0585 88.3214ZM36.0791 69.6995C32.9049 69.6995 30.3656 67.1602 30.3656 63.986C30.3656 60.8119 32.9049 58.2725 36.0791 58.2725C39.2533 58.2725 41.7926 60.8119 41.7926 63.986C41.7926 67.1602 39.2533 69.6995 36.0791 69.6995Z" fill="url(#paint0_linear_1125_121)"/>
<path d="M30.5772 28.2237H35.021L40.5229 14.6805C39.4649 13.8341 38.4068 12.9876 37.1371 12.3528L30.5772 28.2237Z" fill="#FFF171"/>
<path d="M45.1784 0.714189L43.2739 0.0793543C42.6391 -0.132257 42.2158 0.0793546 42.0042 0.714189L38.83 8.54382C40.0997 9.17865 41.1578 9.81349 42.2158 10.6599L45.6016 2.19547C46.0248 1.56064 45.6016 1.13741 45.1784 0.714189Z" fill="#FFF171"/>
<path d="M29.7307 41.3436H25.2869L21.9011 49.8081C23.3824 49.5965 24.6521 49.1733 25.7101 48.75C26.1334 48.5384 26.345 48.5384 26.7682 48.3268L29.7307 41.3436Z" fill="#FFF171"/>
<path d="M39.6765 28.2237H47.9294C47.5061 24.4147 46.0248 20.8173 43.9087 18.0663L39.6765 28.2237Z" fill="#DEF3BC"/>
<path d="M25.0753 10.0251C14.4947 10.0251 6.03026 18.0663 4.9722 28.2237H26.1334L33.3281 10.8715C31.6353 10.4483 29.7308 10.0251 27.8262 10.0251H25.0753Z" fill="#DEF3BC"/>
<path d="M17.2457 50.0197L20.8431 41.3436H4.33736L4.76058 47.2688C7.93475 47.4804 9.83926 48.1152 11.5321 48.75C13.0134 49.3849 14.4947 50.0197 17.2457 50.0197Z" fill="#DEF3BC"/>
<path d="M48.3526 41.3436H34.1746L31.6353 47.4804C32.2701 47.4804 33.1165 47.2688 33.963 47.2688C38.1952 47.2688 40.5229 48.1152 42.4274 48.75C43.9087 49.3849 45.1784 49.8081 47.5061 50.0197L48.3526 41.3436Z" fill="#DEF3BC"/>
<defs>
<linearGradient id="paint0_linear_1125_121" x1="26.1334" y1="51.5009" x2="26.1334" y2="93" gradientUnits="userSpaceOnUse">
<stop stop-color="#9EC262"/>
<stop offset="1" stop-color="#306A22"/>
</linearGradient>
</defs>
</svg>
