<svg width="53" height="93" viewBox="0 0 53 93" fill="none" xmlns="http://www.w3.org/2000/svg">
<path d="M52.1599 36.0533V33.514C52.1599 32.8791 51.7367 32.4559 51.1019 32.4559H2.00801C1.37317 32.4559 0.949951 32.8791 0.949951 33.514V36.0533C0.949951 36.6881 1.37317 37.1114 2.00801 37.1114H24.0156H32.9033H50.8903C51.7367 37.1114 52.1599 36.6881 52.1599 36.0533Z" fill="#FFC590"/>
<path d="M44.3303 90.4375L47.5045 54.2519C44.7536 54.0403 43.0607 53.4055 41.3678 52.7706C39.4633 52.1358 37.7704 51.5009 34.173 51.5009C31.8452 51.5009 30.364 51.7126 28.8827 52.1358C28.2478 52.3474 27.613 52.559 26.9782 52.7706C25.0737 53.4055 22.746 54.2519 18.5137 54.2519C14.2815 54.2519 11.9538 53.4055 10.0493 52.7706C8.56798 52.1358 7.29831 51.7126 5.18219 51.5009L8.56798 90.2259C8.77959 91.7071 9.83764 92.9768 11.5305 92.9768H41.3678C43.0607 93.1884 44.1187 91.9188 44.3303 90.4375ZM17.6673 75.4131C14.4931 75.4131 11.9538 72.8737 11.9538 69.6995C11.9538 66.5254 14.4931 63.986 17.6673 63.986C20.8414 63.986 23.3808 66.5254 23.3808 69.6995C23.3808 72.8737 20.8414 75.4131 17.6673 75.4131ZM32.2685 88.3214C29.0943 88.3214 26.555 85.782 26.555 82.6078C26.555 79.4337 29.0943 76.8943 32.2685 76.8943C35.4426 76.8943 37.982 79.4337 37.982 82.6078C37.982 85.782 35.4426 88.3214 32.2685 88.3214ZM36.2891 69.6995C33.1149 69.6995 30.5756 67.1602 30.5756 63.986C30.5756 60.8119 33.1149 58.2725 36.2891 58.2725C39.4633 58.2725 42.0026 60.8119 42.0026 63.986C42.0026 67.1602 39.4633 69.6995 36.2891 69.6995Z" fill="url(#paint0_linear_1125_109)"/>
<path d="M30.7872 28.2237H35.231L40.7329 14.6805C39.6749 13.8341 38.6168 12.9876 37.3471 12.3528L30.7872 28.2237Z" fill="#A6A5FF"/>
<path d="M45.3884 0.714189L43.4839 0.0793543C42.849 -0.132257 42.4258 0.0793546 42.2142 0.714189L39.04 8.54382C40.3097 9.17865 41.3678 9.81349 42.4258 10.6599L45.8116 2.19547C46.2348 1.56064 45.8116 1.13741 45.3884 0.714189Z" fill="#A6A5FF"/>
<path d="M29.9407 41.3436H25.4969L22.1111 49.8081C23.5924 49.5965 24.8621 49.1733 25.9201 48.75C26.3433 48.5384 26.555 48.5384 26.9782 48.3268L29.9407 41.3436Z" fill="#A6A5FF"/>
<path d="M39.8865 28.2237H48.1393C47.7161 24.4147 46.2348 20.8173 44.1187 18.0663L39.8865 28.2237Z" fill="#FFEAD8"/>
<path d="M25.2853 10.0251C14.7047 10.0251 6.24025 18.0663 5.18219 28.2237H26.3433L33.5381 10.8715C31.8452 10.4483 29.9407 10.0251 28.0362 10.0251H25.2853Z" fill="#FFEAD8"/>
<path d="M17.4557 50.0197L21.053 41.3436H4.54735L4.97057 47.2688C8.14474 47.4804 10.0492 48.1152 11.7421 48.75C13.2234 49.3849 14.7047 50.0197 17.4557 50.0197Z" fill="#FFEAD8"/>
<path d="M48.5626 41.3436H34.3846L31.8452 47.4804C32.4801 47.4804 33.3265 47.2688 34.173 47.2688C38.4052 47.2688 40.7329 48.1152 42.6374 48.75C44.1187 49.3849 45.3884 49.8081 47.7161 50.0197L48.5626 41.3436Z" fill="#FFEAD8"/>
<defs>
<linearGradient id="paint0_linear_1125_109" x1="26.3433" y1="51.5009" x2="26.3433" y2="93" gradientUnits="userSpaceOnUse">
<stop stop-color="#FC9C44"/>
<stop offset="1" stop-color="#C43B01"/>
</linearGradient>
</defs>
</svg>
