<svg width="52" height="93" viewBox="0 0 52 93" fill="none" xmlns="http://www.w3.org/2000/svg">
<path d="M51.53 36.0533V33.514C51.53 32.8791 51.1067 32.4559 50.4719 32.4559H1.37803C0.7432 32.4559 0.319977 32.8791 0.319977 33.514V36.0533C0.319977 36.6881 0.7432 37.1114 1.37803 37.1114H23.3856H32.2733H50.2603C51.1068 37.1114 51.53 36.6881 51.53 36.0533Z" fill="white"/>
<path d="M30.1572 28.2237H34.6011L40.103 14.6805C39.0449 13.8341 37.9868 12.9876 36.7172 12.3528L30.1572 28.2237Z" fill="white"/>
<path d="M39.2565 28.2237H47.5093C47.0861 24.4147 45.6048 20.8173 43.4887 18.0663L39.2565 28.2237Z" fill="white"/>
<path d="M24.6553 10.0251C14.0747 10.0251 5.61027 18.0663 4.55221 28.2237H25.7134L32.9082 10.8715C31.2153 10.4483 29.3108 10.0251 27.4063 10.0251H24.6553Z" fill="white"/>
<path d="M44.7584 0.714189L42.8539 0.0793543C42.2191 -0.132257 41.7958 0.0793546 41.5842 0.714189L38.4101 8.54382C39.6797 9.17865 40.7378 9.81349 41.7958 10.6599L45.1816 2.19547C45.6048 1.56064 45.1816 1.13741 44.7584 0.714189Z" fill="white"/>
<path d="M43.7004 90.4375L46.8745 54.2519C44.1236 54.0403 42.4307 53.4055 40.7378 52.7706C38.8333 52.1358 37.1404 51.5009 33.543 51.5009C31.2153 51.5009 29.734 51.7126 28.2527 52.1358C27.6179 52.3474 26.983 52.559 26.3482 52.7706C24.4437 53.4055 22.116 54.2519 17.8837 54.2519C13.6515 54.2519 11.3238 53.4055 9.41928 52.7706C7.938 52.1358 6.66832 51.7126 4.55221 51.5009L7.93799 90.2259C8.14961 91.7071 9.20766 92.9768 10.9006 92.9768H40.7378C42.4307 93.1884 43.4887 91.9188 43.7004 90.4375ZM17.0373 75.4131C13.8631 75.4131 11.3238 72.8737 11.3238 69.6995C11.3238 66.5254 13.8631 63.986 17.0373 63.986C20.2115 63.986 22.7508 66.5254 22.7508 69.6995C22.7508 72.8737 20.2115 75.4131 17.0373 75.4131ZM31.6385 88.3214C28.4643 88.3214 25.925 85.782 25.925 82.6078C25.925 79.4337 28.4643 76.8943 31.6385 76.8943C34.8127 76.8943 37.352 79.4337 37.352 82.6078C37.352 85.782 34.8127 88.3214 31.6385 88.3214ZM35.6591 69.6995C32.4849 69.6995 29.9456 67.1602 29.9456 63.986C29.9456 60.8119 32.4849 58.2725 35.6591 58.2725C38.8333 58.2725 41.3726 60.8119 41.3726 63.986C41.3726 67.1602 38.8333 69.6995 35.6591 69.6995Z" fill="white"/>
<path d="M16.8257 50.0197L20.4231 41.3436H3.91737L4.34059 47.2688C7.51476 47.4804 9.41927 48.1152 11.1122 48.75C12.5934 49.3849 14.0747 50.0197 16.8257 50.0197Z" fill="white"/>
<path d="M29.3108 41.3436H24.8669L21.4811 49.8081C22.9624 49.5965 24.2321 49.1733 25.2901 48.75C25.7134 48.5384 25.925 48.5384 26.3482 48.3268L29.3108 41.3436Z" fill="white"/>
<path d="M47.9326 41.3436H33.7546L31.2153 47.4804C31.8501 47.4804 32.6966 47.2688 33.543 47.2688C37.7752 47.2688 40.103 48.1152 42.0075 48.75C43.4887 49.3849 44.7584 49.8081 47.0861 50.0197L47.9326 41.3436Z" fill="white"/>
</svg>
