<svg width="52" height="93" viewBox="0 0 52 93" fill="none" xmlns="http://www.w3.org/2000/svg">
<path d="M51.32 36.0533V33.514C51.32 32.8791 50.8968 32.4559 50.2619 32.4559H1.16804C0.533208 32.4559 0.109985 32.8791 0.109985 33.514V36.0533C0.109985 36.6881 0.533208 37.1114 1.16804 37.1114H23.1756H32.0633H50.0503C50.8968 37.1114 51.32 36.6881 51.32 36.0533Z" fill="url(#paint0_linear_1124_22)"/>
<path d="M29.9472 28.2237H34.3911L39.893 14.6805C38.8349 13.8341 37.7768 12.9876 36.5072 12.3528L29.9472 28.2237Z" fill="url(#paint1_linear_1124_22)"/>
<path d="M39.0465 28.2237H47.2994C46.8761 24.4147 45.3949 20.8173 43.2787 18.0663L39.0465 28.2237Z" fill="url(#paint2_linear_1124_22)"/>
<path d="M24.4453 10.0251C13.8647 10.0251 5.40027 18.0663 4.34222 28.2237H25.5034L32.6982 10.8715C31.0053 10.4483 29.1008 10.0251 27.1963 10.0251H24.4453Z" fill="url(#paint3_linear_1124_22)"/>
<path d="M44.5484 0.714189L42.6439 0.0793543C42.0091 -0.132257 41.5859 0.0793546 41.3742 0.714189L38.2001 8.54382C39.4697 9.17865 40.5278 9.81349 41.5858 10.6599L44.9716 2.19547C45.3949 1.56064 44.9716 1.13741 44.5484 0.714189Z" fill="url(#paint4_linear_1124_22)"/>
<path d="M43.4904 90.4375L46.6645 54.2519C43.9136 54.0403 42.2207 53.4055 40.5278 52.7706C38.6233 52.1358 36.9304 51.5009 33.333 51.5009C31.0053 51.5009 29.524 51.7126 28.0427 52.1358C27.4079 52.3474 26.773 52.559 26.1382 52.7706C24.2337 53.4055 21.906 54.2519 17.6737 54.2519C13.4415 54.2519 11.1138 53.4055 9.20928 52.7706C7.728 52.1358 6.45833 51.7126 4.34222 51.5009L7.728 90.2259C7.93961 91.7071 8.99767 92.9768 10.6906 92.9768H40.5278C42.2207 93.1884 43.2787 91.9188 43.4904 90.4375ZM16.8273 75.4131C13.6531 75.4131 11.1138 72.8737 11.1138 69.6995C11.1138 66.5254 13.6531 63.986 16.8273 63.986C20.0015 63.986 22.5408 66.5254 22.5408 69.6995C22.5408 72.8737 20.0015 75.4131 16.8273 75.4131ZM31.4285 88.3214C28.2543 88.3214 25.715 85.782 25.715 82.6078C25.715 79.4337 28.2543 76.8943 31.4285 76.8943C34.6027 76.8943 37.142 79.4337 37.142 82.6078C37.142 85.782 34.6027 88.3214 31.4285 88.3214ZM35.4491 69.6995C32.2749 69.6995 29.7356 67.1602 29.7356 63.986C29.7356 60.8119 32.2749 58.2725 35.4491 58.2725C38.6233 58.2725 41.1626 60.8119 41.1626 63.986C41.1626 67.1602 38.6233 69.6995 35.4491 69.6995Z" fill="url(#paint5_linear_1124_22)"/>
<path d="M16.6157 50.0197L20.2131 41.3436H3.70737L4.1306 47.2688C7.30477 47.4804 9.20927 48.1152 10.9022 48.75C12.3834 49.3849 13.8647 50.0197 16.6157 50.0197Z" fill="url(#paint6_linear_1124_22)"/>
<path d="M29.1008 41.3436H24.6569L21.2711 49.8081C22.7524 49.5965 24.0221 49.1733 25.0802 48.75C25.5034 48.5384 25.715 48.5384 26.1382 48.3268L29.1008 41.3436Z" fill="url(#paint7_linear_1124_22)"/>
<path d="M47.7226 41.3436H33.5446L31.0053 47.4804C31.6401 47.4804 32.4865 47.2688 33.333 47.2688C37.5652 47.2688 39.893 48.1152 41.7975 48.75C43.2787 49.3849 44.5484 49.8081 46.8761 50.0197L47.7226 41.3436Z" fill="url(#paint8_linear_1124_22)"/>
<defs>
<linearGradient id="paint0_linear_1124_22" x1="25.715" y1="32.4559" x2="25.715" y2="37.1114" gradientUnits="userSpaceOnUse">
<stop stop-color="#979797"/>
<stop offset="1" stop-color="#393939" stop-opacity="0"/>
</linearGradient>
<linearGradient id="paint1_linear_1124_22" x1="34.9201" y1="12.3528" x2="34.9201" y2="28.2237" gradientUnits="userSpaceOnUse">
<stop stop-color="#979797"/>
<stop offset="1" stop-color="#393939" stop-opacity="0"/>
</linearGradient>
<linearGradient id="paint2_linear_1124_22" x1="43.1729" y1="18.0663" x2="43.1729" y2="28.2237" gradientUnits="userSpaceOnUse">
<stop stop-color="#979797"/>
<stop offset="1" stop-color="#393939" stop-opacity="0"/>
</linearGradient>
<linearGradient id="paint3_linear_1124_22" x1="18.5202" y1="10.0251" x2="18.5202" y2="28.2237" gradientUnits="userSpaceOnUse">
<stop stop-color="#979797"/>
<stop offset="1" stop-color="#393939" stop-opacity="0"/>
</linearGradient>
<linearGradient id="paint4_linear_1124_22" x1="41.6735" y1="0" x2="41.6735" y2="10.6599" gradientUnits="userSpaceOnUse">
<stop stop-color="#979797"/>
<stop offset="1" stop-color="#393939" stop-opacity="0"/>
</linearGradient>
<linearGradient id="paint5_linear_1124_22" x1="25.5034" y1="51.5009" x2="25.5034" y2="93" gradientUnits="userSpaceOnUse">
<stop stop-color="#979797"/>
<stop offset="1" stop-color="#393939" stop-opacity="0"/>
</linearGradient>
<linearGradient id="paint6_linear_1124_22" x1="11.9602" y1="41.3436" x2="11.9602" y2="50.0197" gradientUnits="userSpaceOnUse">
<stop stop-color="#979797"/>
<stop offset="1" stop-color="#393939" stop-opacity="0"/>
</linearGradient>
<linearGradient id="paint7_linear_1124_22" x1="25.186" y1="41.3436" x2="25.186" y2="49.8081" gradientUnits="userSpaceOnUse">
<stop stop-color="#979797"/>
<stop offset="1" stop-color="#393939" stop-opacity="0"/>
</linearGradient>
<linearGradient id="paint8_linear_1124_22" x1="39.3639" y1="41.3436" x2="39.3639" y2="50.0197" gradientUnits="userSpaceOnUse">
<stop stop-color="#979797"/>
<stop offset="1" stop-color="#393939" stop-opacity="0"/>
</linearGradient>
</defs>
</svg>
