<svg width="53" height="93" viewBox="0 0 53 93" fill="none" xmlns="http://www.w3.org/2000/svg">
<path d="M52.11 36.0533V33.514C52.11 32.8791 51.6868 32.4559 51.0519 32.4559H1.95805C1.32322 32.4559 0.899994 32.8791 0.899994 33.514V36.0533C0.899994 36.6881 1.32322 37.1114 1.95805 37.1114H23.9657H32.8533H50.8403C51.6868 37.1114 52.11 36.6881 52.11 36.0533Z" fill="black"/>
<path d="M30.7372 28.2237H35.1811L40.683 14.6805C39.6249 13.8341 38.5669 12.9876 37.2972 12.3528L30.7372 28.2237Z" fill="black"/>
<path d="M39.8365 28.2237H48.0894C47.6661 24.4147 46.1849 20.8173 44.0687 18.0663L39.8365 28.2237Z" fill="black"/>
<path d="M25.2353 10.0251C14.6548 10.0251 6.19029 18.0663 5.13223 28.2237H26.2934L33.4882 10.8715C31.7953 10.4483 29.8908 10.0251 27.9863 10.0251H25.2353Z" fill="black"/>
<path d="M45.3384 0.714189L43.4339 0.0793543C42.7991 -0.132257 42.3759 0.0793546 42.1642 0.714189L38.9901 8.54382C40.2597 9.17865 41.3178 9.81349 42.3759 10.6599L45.7616 2.19547C46.1849 1.56064 45.7616 1.13741 45.3384 0.714189Z" fill="black"/>
<path d="M44.2804 90.4375L47.4545 54.2519C44.7036 54.0403 43.0107 53.4055 41.3178 52.7706C39.4133 52.1358 37.7204 51.5009 34.123 51.5009C31.7953 51.5009 30.314 51.7126 28.8327 52.1358C28.1979 52.3474 27.5631 52.559 26.9282 52.7706C25.0237 53.4055 22.696 54.2519 18.4638 54.2519C14.2315 54.2519 11.9038 53.4055 9.9993 52.7706C8.51802 52.1358 7.24835 51.7126 5.13223 51.5009L8.51802 90.2259C8.72963 91.7071 9.78769 92.9768 11.4806 92.9768H41.3178C43.0107 93.1884 44.0688 91.9188 44.2804 90.4375ZM17.6173 75.4131C14.4431 75.4131 11.9038 72.8737 11.9038 69.6995C11.9038 66.5254 14.4431 63.986 17.6173 63.986C20.7915 63.986 23.3308 66.5254 23.3308 69.6995C23.3308 72.8737 20.7915 75.4131 17.6173 75.4131ZM32.2185 88.3214C29.0443 88.3214 26.505 85.782 26.505 82.6078C26.505 79.4337 29.0443 76.8943 32.2185 76.8943C35.3927 76.8943 37.932 79.4337 37.932 82.6078C37.932 85.782 35.3927 88.3214 32.2185 88.3214ZM36.2391 69.6995C33.065 69.6995 30.5256 67.1602 30.5256 63.986C30.5256 60.8119 33.065 58.2725 36.2391 58.2725C39.4133 58.2725 41.9526 60.8119 41.9526 63.986C41.9526 67.1602 39.4133 69.6995 36.2391 69.6995Z" fill="black"/>
<path d="M17.4057 50.0197L21.0031 41.3436H4.49739L4.92061 47.2688C8.09479 47.4804 9.99929 48.1152 11.6922 48.75C13.1735 49.3849 14.6547 50.0197 17.4057 50.0197Z" fill="black"/>
<path d="M29.8908 41.3436H25.4469L22.0611 49.8081C23.5424 49.5965 24.8121 49.1733 25.8702 48.75C26.2934 48.5384 26.505 48.5384 26.9282 48.3268L29.8908 41.3436Z" fill="black"/>
<path d="M48.5126 41.3436H34.3346L31.7953 47.4804C32.4301 47.4804 33.2766 47.2688 34.123 47.2688C38.3553 47.2688 40.683 48.1152 42.5875 48.75C44.0688 49.3849 45.3384 49.8081 47.6662 50.0197L48.5126 41.3436Z" fill="black"/>
</svg>
