<svg width="26" height="45" viewBox="0 0 26 45" fill="none" xmlns="http://www.w3.org/2000/svg">
<path d="M25.1 18V16.8C25.1 16.5 24.9 16.3 24.6 16.3H1.39999C1.09999 16.3 0.899994 16.5 0.899994 16.8V18C0.899994 18.3 1.09999 18.5 1.39999 18.5H11.8H16H24.5C24.9 18.5 25.1 18.3 25.1 18Z" fill="black"/>
<path d="M15 14.3H17.1L19.7 7.89999C19.2 7.49999 18.7 7.09999 18.1 6.79999L15 14.3Z" fill="black"/>
<path d="M19.3 14.3H23.2C23 12.5 22.3 10.8 21.3 9.5L19.3 14.3Z" fill="black"/>
<path d="M12.4 5.7C7.39999 5.7 3.39999 9.5 2.89999 14.3H12.9L16.3 6.1C15.5 5.9 14.6 5.7 13.7 5.7H12.4Z" fill="black"/>
<path d="M21.9 1.29999L21 0.999994C20.7 0.899994 20.5 0.999994 20.4 1.29999L18.9 4.99999C19.5 5.29999 20 5.59999 20.5 5.99999L22.1 1.99999C22.3 1.69999 22.1 1.49999 21.9 1.29999Z" fill="black"/>
<path d="M21.4 43.7L22.9 26.6C21.6 26.5 20.8 26.2 20 25.9C19.1 25.6 18.3 25.3 16.6 25.3C15.5 25.3 14.8 25.4 14.1 25.6C13.8 25.7 13.5 25.8 13.2 25.9C12.3 26.2 11.2 26.6 9.2 26.6C7.2 26.6 6.1 26.2 5.2 25.9C4.5 25.6 3.89999 25.4 2.89999 25.3L4.49999 43.6C4.59999 44.3 5.09999 44.9 5.89999 44.9H20C20.8 45 21.3 44.4 21.4 43.7ZM8.79999 36.6C7.29999 36.6 6.09999 35.4 6.09999 33.9C6.09999 32.4 7.29999 31.2 8.79999 31.2C10.3 31.2 11.5 32.4 11.5 33.9C11.5 35.4 10.3 36.6 8.79999 36.6ZM15.7 42.7C14.2 42.7 13 41.5 13 40C13 38.5 14.2 37.3 15.7 37.3C17.2 37.3 18.4 38.5 18.4 40C18.4 41.5 17.2 42.7 15.7 42.7ZM17.6 33.9C16.1 33.9 14.9 32.7 14.9 31.2C14.9 29.7 16.1 28.5 17.6 28.5C19.1 28.5 20.3 29.7 20.3 31.2C20.3 32.7 19.1 33.9 17.6 33.9Z" fill="black"/>
<path d="M8.69999 24.6L10.4 20.5H2.59999L2.79999 23.3C4.29999 23.4 5.19999 23.7 5.99999 24C6.69999 24.3 7.39999 24.6 8.69999 24.6Z" fill="black"/>
<path d="M14.6 20.5H12.5L10.9 24.5C11.6 24.4 12.2 24.2 12.7 24C12.9 23.9 13 23.9 13.2 23.8L14.6 20.5Z" fill="black"/>
<path d="M23.4 20.5H16.7L15.5 23.4C15.8 23.4 16.2 23.3 16.6 23.3C18.6 23.3 19.7 23.7 20.6 24C21.3 24.3 21.9 24.5 23 24.6L23.4 20.5Z" fill="black"/>
</svg>
