<svg width="25" height="44" viewBox="0 0 25 44" fill="none" xmlns="http://www.w3.org/2000/svg">
<path d="M24.2 17.0375V15.8375C24.2 15.5375 24 15.3375 23.7 15.3375H0.5C0.2 15.3375 0 15.5375 0 15.8375V17.0375C0 17.3375 0.2 17.5375 0.5 17.5375H10.9H15.1H23.6C24 17.5375 24.2 17.3375 24.2 17.0375Z" fill="#DCBEFF"/>
<path d="M14.1 13.3375H16.2L18.8 6.93749C18.3 6.53749 17.8 6.13749 17.2 5.83749L14.1 13.3375Z" fill="#A5D9FF"/>
<path d="M18.4 13.3375H22.3C22.1 11.5375 21.4 9.83751 20.4 8.53751L18.4 13.3375Z" fill="#EFE4FC"/>
<path d="M11.5 4.7375C6.5 4.7375 2.5 8.5375 2 13.3375H12L15.4 5.1375C14.6 4.9375 13.7 4.7375 12.8 4.7375H11.5Z" fill="#EFE4FC"/>
<path d="M21 0.3375L20.1 0.0375C19.8 -0.0625 19.6 0.0375001 19.5 0.3375L18 4.0375C18.6 4.3375 19.1 4.6375 19.6 5.0375L21.2 1.0375C21.4 0.7375 21.2 0.5375 21 0.3375Z" fill="#A5D9FF"/>
<path d="M20.5 42.7375L22 25.6375C20.7 25.5375 19.9 25.2375 19.1 24.9375C18.2 24.6375 17.4 24.3375 15.7 24.3375C14.6 24.3375 13.9 24.4375 13.2 24.6375C12.9 24.7375 12.6 24.8375 12.3 24.9375C11.4 25.2375 10.3 25.6375 8.3 25.6375C6.3 25.6375 5.2 25.2375 4.3 24.9375C3.6 24.6375 3 24.4375 2 24.3375L3.6 42.6375C3.7 43.3375 4.2 43.9375 5 43.9375H19.1C19.9 44.0375 20.4 43.4375 20.5 42.7375ZM7.9 35.6375C6.4 35.6375 5.2 34.4375 5.2 32.9375C5.2 31.4375 6.4 30.2375 7.9 30.2375C9.4 30.2375 10.6 31.4375 10.6 32.9375C10.6 34.4375 9.4 35.6375 7.9 35.6375ZM14.8 41.7375C13.3 41.7375 12.1 40.5375 12.1 39.0375C12.1 37.5375 13.3 36.3375 14.8 36.3375C16.3 36.3375 17.5 37.5375 17.5 39.0375C17.5 40.5375 16.3 41.7375 14.8 41.7375ZM16.7 32.9375C15.2 32.9375 14 31.7375 14 30.2375C14 28.7375 15.2 27.5375 16.7 27.5375C18.2 27.5375 19.4 28.7375 19.4 30.2375C19.4 31.7375 18.2 32.9375 16.7 32.9375Z" fill="url(#paint0_linear_1124_34)"/>
<path d="M7.8 23.6375L9.5 19.5375H1.7L1.9 22.3375C3.4 22.4375 4.3 22.7375 5.1 23.0375C5.8 23.3375 6.5 23.6375 7.8 23.6375Z" fill="#EFE4FC"/>
<path d="M13.7 19.5375H11.6L10 23.5375C10.7 23.4375 11.3 23.2375 11.8 23.0375C12 22.9375 12.1 22.9375 12.3 22.8375L13.7 19.5375Z" fill="#A5D9FF"/>
<path d="M22.5 19.5375H15.8L14.6 22.4375C14.9 22.4375 15.3 22.3375 15.7 22.3375C17.7 22.3375 18.8 22.7375 19.7 23.0375C20.4 23.3375 21 23.5375 22.1 23.6375L22.5 19.5375Z" fill="#EFE4FC"/>
<defs>
<linearGradient id="paint0_linear_1124_34" x1="12" y1="24.3375" x2="12" y2="43.9484" gradientUnits="userSpaceOnUse">
<stop stop-color="#8A62C2"/>
<stop offset="1" stop-color="#2D0663"/>
</linearGradient>
</defs>
</svg>
