<svg width="52" height="93" viewBox="0 0 52 93" fill="none" xmlns="http://www.w3.org/2000/svg">
<path d="M51.74 36.0533V33.514C51.74 32.8791 51.3167 32.4559 50.6819 32.4559H1.58803C0.953191 32.4559 0.529968 32.8791 0.529968 33.514V36.0533C0.529968 36.6881 0.953191 37.1114 1.58803 37.1114H23.5956H32.4833H50.4703C51.3167 37.1114 51.74 36.6881 51.74 36.0533Z" fill="#DCBEFF"/>
<path d="M43.9103 90.4375L47.0845 54.2519C44.3336 54.0403 42.6407 53.4055 40.9478 52.7706C39.0433 52.1358 37.3504 51.5009 33.753 51.5009C31.4253 51.5009 29.944 51.7126 28.4627 52.1358C27.8279 52.3474 27.193 52.559 26.5582 52.7706C24.6537 53.4055 22.326 54.2519 18.0937 54.2519C13.8615 54.2519 11.5338 53.4055 9.62927 52.7706C8.14799 52.1358 6.87831 51.7126 4.7622 51.5009L8.14799 90.2259C8.3596 91.7071 9.41765 92.9768 11.1105 92.9768H40.9478C42.6407 93.1884 43.6987 91.9188 43.9103 90.4375ZM17.2473 75.4131C14.0731 75.4131 11.5338 72.8737 11.5338 69.6995C11.5338 66.5254 14.0731 63.986 17.2473 63.986C20.4215 63.986 22.9608 66.5254 22.9608 69.6995C22.9608 72.8737 20.4215 75.4131 17.2473 75.4131ZM31.8485 88.3214C28.6743 88.3214 26.135 85.782 26.135 82.6078C26.135 79.4337 28.6743 76.8943 31.8485 76.8943C35.0227 76.8943 37.562 79.4337 37.562 82.6078C37.562 85.782 35.0227 88.3214 31.8485 88.3214ZM35.8691 69.6995C32.6949 69.6995 30.1556 67.1602 30.1556 63.986C30.1556 60.8119 32.6949 58.2725 35.8691 58.2725C39.0433 58.2725 41.5826 60.8119 41.5826 63.986C41.5826 67.1602 39.0433 69.6995 35.8691 69.6995Z" fill="url(#paint0_linear_1124_34)"/>
<path d="M30.3672 28.2237H34.811L40.3129 14.6805C39.2549 13.8341 38.1968 12.9876 36.9272 12.3528L30.3672 28.2237Z" fill="#A5D9FF"/>
<path d="M44.9684 0.714189L43.0639 0.0793543C42.4291 -0.132257 42.0058 0.0793546 41.7942 0.714189L38.62 8.54382C39.8897 9.17865 40.9478 9.81349 42.0058 10.6599L45.3916 2.19547C45.8148 1.56064 45.3916 1.13741 44.9684 0.714189Z" fill="#A5D9FF"/>
<path d="M29.5207 41.3436H25.0769L21.6911 49.8081C23.1724 49.5965 24.4421 49.1733 25.5001 48.75C25.9234 48.5384 26.135 48.5384 26.5582 48.3268L29.5207 41.3436Z" fill="#A5D9FF"/>
<path d="M39.4665 28.2237H47.7194C47.2961 24.4147 45.8148 20.8173 43.6987 18.0663L39.4665 28.2237Z" fill="#EFE4FC"/>
<path d="M24.8653 10.0251C14.2847 10.0251 5.82026 18.0663 4.7622 28.2237H25.9234L33.1181 10.8715C31.4253 10.4483 29.5208 10.0251 27.6162 10.0251H24.8653Z" fill="#EFE4FC"/>
<path d="M17.0357 50.0197L20.6331 41.3436H4.12736L4.55058 47.2688C7.72475 47.4804 9.62926 48.1152 11.3222 48.75C12.8034 49.3849 14.2847 50.0197 17.0357 50.0197Z" fill="#EFE4FC"/>
<path d="M48.1426 41.3436H33.9646L31.4253 47.4804C32.0601 47.4804 32.9065 47.2688 33.753 47.2688C37.9852 47.2688 40.3129 48.1152 42.2174 48.75C43.6987 49.3849 44.9684 49.8081 47.2961 50.0197L48.1426 41.3436Z" fill="#EFE4FC"/>
<defs>
<linearGradient id="paint0_linear_1124_34" x1="25.9234" y1="51.5009" x2="25.9234" y2="93" gradientUnits="userSpaceOnUse">
<stop stop-color="#8A62C2"/>
<stop offset="1" stop-color="#2D0663"/>
</linearGradient>
</defs>
</svg>
